<?xml version="1.0" encoding="UTF-8"?>
<svg id="Layer_2" data-name="Layer 2" xmlns="http://www.w3.org/2000/svg" xmlns:xlink="http://www.w3.org/1999/xlink" viewBox="0 0 1891.99 545.34">
  <defs>
    <style>
      .cls-1 {
        fill: #fff;
      }

      .cls-2 {
        filter: url(#drop-shadow-1);
      }
    </style>
    <filter id="drop-shadow-1" filterUnits="userSpaceOnUse">
      <feOffset dx="15" dy="19"/>
      <feGaussianBlur result="blur" stdDeviation="0"/>
      <feFlood flood-color="#000" flood-opacity=".75"/>
      <feComposite in2="blur" operator="in"/>
      <feComposite in="SourceGraphic"/>
    </filter>
  </defs>
  <g id="Layer_1-2" data-name="Layer 1" class="cls-2">
    <g>
      <path class="cls-1" d="M433.29,242.45l1.4,119.95c.1,6.02,2.81,8.85,8.13,8.49l.17,16.82-13.18,1.31c-8.29,.83-14.97-.6-20.02-4.29-5.6-4.13-8.42-10.47-8.43-19.01l-.48-42.66-30.1,3,.82,68.76-33.09,3.3-1.74-146.05c-.16-13.38,5.22-24.05,16.16-32.01,8.72-6.56,19.22-10.46,31.5-11.68,12.27-1.22,22.92,.57,31.94,5.36,11.14,5.92,16.78,15.5,16.93,28.71Zm-33.31-1.45c.02-4.86-1.38-8.82-4.2-11.89-2.82-3.07-6.55-4.37-11.19-3.91s-8.04,2.48-10.7,6.09c-2.65,3.62-3.99,7.85-4.01,12.71l.72,65.25,30.1-3-.72-65.25Z"/>
      <path class="cls-1" d="M479.63,369.73c.41,4.15-.72,7.86-3.41,11.14s-6.19,5.14-10.5,5.57-7.86-.72-11.14-3.41-5.13-6.1-5.54-10.25,.66-8.11,3.26-11.38c2.6-3.27,6.06-5.13,10.38-5.56s8.11,.7,11.39,3.39,5.14,6.19,5.57,10.5Z"/>
      <path class="cls-1" d="M522.73,194.59l2.49,204.01c.18,10.2-3.37,19.09-10.66,26.69-7.28,7.59-16.81,11.98-28.59,13.15L2.15,486.9l-1.69-16.92,474.9-47.32c11.11-1.11,16.62-8.02,16.52-20.74l-2.49-204.01,33.33-3.32Z"/>
      <path class="cls-1" d="M567.69,360.96c.41,4.15-.72,7.86-3.41,11.14s-6.19,5.14-10.5,5.57-7.86-.72-11.14-3.41-5.13-6.1-5.54-10.25,.66-8.11,3.26-11.38c2.6-3.27,6.06-5.13,10.38-5.56s8.11,.7,11.39,3.39c3.28,2.69,5.14,6.19,5.57,10.5Z"/>
      <path class="cls-1" d="M1888.99,58.71l1.69,16.92L680.36,195.72l2.18,168.11-33.33,3.32-1.93-168.14-23.88,2.38-.14-16.57L1888.99,58.71Z"/>
      <path class="cls-1" d="M825.22,333.29l.17,16.82-12.94,1.29c-8.13,.81-14.88-.61-20.27-4.26-6.1-4.08-9.23-10.22-9.37-18.41l-1.02-65.72c-.26-12.7-4.87-18.61-13.82-17.72l-13.43,1.34,1.4,109.9-33.33,3.32-1.42-170.7-11.04,.1,1.2-8.16,41.99-2.17,.97,50.15,13.43-1.34c13.27-1.32,24.09,.53,32.46,5.56,9.78,5.73,14.74,15.2,14.89,28.41l1.07,63.71c.03,3.68,.86,6.11,2.49,7.29,1.08,.73,3.27,.93,6.59,.6Z"/>
      <path class="cls-1" d="M924.72,247.75l.58,56.22c.14,9.87-4,18.7-12.43,26.49-8.44,7.79-18.71,12.29-30.81,13.5l-4.98,.5c-11.44,1.14-21.44-.88-30-6.06-9.45-5.76-14.22-14.16-14.32-25.2l-.58-56.22c-.1-11.04,4.5-20.38,13.79-28.01,8.19-6.85,18.01-10.84,29.46-11.98l5.22-.52c11.28-1.12,21.19,.9,29.75,6.08,9.47,5.93,14.24,14.33,14.32,25.2Zm-33.33,3.32c-.1-6.02-1.42-10.49-3.98-13.42-2.55-2.93-5.66-4.21-9.3-3.85s-6.49,2.15-9.01,5.42c-2.64,3.78-3.92,8.6-3.84,14.45l.83,56.2c.06,5.69,1.42,10.08,4.07,13.16,2.65,3.09,5.73,4.54,9.23,4.36,3.5-.18,6.54-2.03,9.12-5.56,2.58-3.52,3.81-8.38,3.7-14.56l-.83-56.2Z"/>
      <path class="cls-1" d="M1107.27,304.68l.17,16.82-15.42,1.54c-8.13,.81-14.96-.52-20.5-3.99-6.1-4.08-9.23-10.3-9.4-18.66l-.9-69.5c-.05-3.85-1.31-7.28-3.79-10.3-2.48-3.02-5.79-4.32-9.94-3.91l-13.43,1.34,1.23,110.67-33.33,3.32-1.19-95.1c-.05-3.85-1.31-7.28-3.79-10.3-2.48-3.02-5.79-4.32-9.94-3.91l-13.43,1.34,1.23,110.67-33.09,3.3-1.48-110.65-8.71,.87-.17-16.82,115.93-11.55c13.93-1.39,24.99,.36,33.18,5.24,9.23,5.28,13.97,14.1,14.19,26.47l.8,63.48c0,5.02,.97,8.11,2.93,9.25,1.08,.73,4.02,.86,8.83,.38Z"/>
      <path class="cls-1" d="M1214.53,218.87l.58,56.22c.1,11.04-4.5,20.38-13.79,28.01-8.36,6.86-18.18,10.86-29.46,11.98l-5.22,.52c-4.15,.41-7.66,.43-10.55,.05l.8,55.95-33.33,3.32-1.93-165.62-9.45,.94-.42-16.79,58.46-5.83c11.44-1.14,21.44,.88,30,6.06,9.45,5.76,14.22,14.16,14.32,25.2Zm-33.51-.93c-.13-9.7-4.34-14.14-12.63-13.31l-13.43,1.34,.69,75.05c.08,5.86,1.44,10.33,4.1,13.41,2.65,3.09,5.72,4.45,9.2,4.11s6.72-2.3,9.22-5.82c2.5-3.51,3.7-8.28,3.6-14.3l-.75-60.47Z"/>
      <path class="cls-1" d="M1292.14,294.3c-7.55,6.62-17.29,10.52-29.23,11.71l-39.55,3.94-.17-16.82,26.62-2.65c10.28-1.02,14.94-6.43,13.96-16.21-.55-5.47-2.85-10.1-6.91-13.88l-22.16-20.65c-7.21-6.82-11.25-14.54-12.11-23.16-1.09-10.95,2.62-19.94,11.13-26.99,7.42-6.27,16.76-9.96,28.04-11.08l27.36-2.73,.17,16.82-19.65,1.96c-8.29,.83-12.19,3.73-11.69,8.7,.26,2.65,1.61,5.2,4.03,7.64l27.38,27.67c8.39,8.55,13.07,17.71,14.05,27.49,1.12,11.28-2.63,20.7-11.25,28.26Z"/>
      <path class="cls-1" d="M1404.09,199.98l.58,56.22c.14,9.87-4,18.7-12.43,26.49-8.44,7.79-18.71,12.29-30.81,13.5l-4.98,.5c-11.44,1.14-21.44-.88-30-6.06-9.45-5.76-14.22-14.16-14.32-25.2l-.58-56.22c-.1-11.04,4.5-20.38,13.79-28.01,8.19-6.85,18.01-10.84,29.46-11.98l5.22-.52c11.28-1.12,21.19,.9,29.75,6.08,9.47,5.93,14.24,14.33,14.32,25.2Zm-33.33,3.32c-.1-6.02-1.42-10.49-3.98-13.42-2.55-2.93-5.66-4.21-9.3-3.85s-6.49,2.15-9.01,5.42c-2.64,3.78-3.92,8.6-3.84,14.45l.83,56.2c.06,5.69,1.42,10.08,4.07,13.16,2.65,3.09,5.73,4.54,9.23,4.36,3.5-.18,6.54-2.03,9.12-5.56,2.58-3.52,3.81-8.38,3.7-14.56l-.83-56.2Z"/>
      <path class="cls-1" d="M1525.43,263.01l.17,16.82-14.18,1.41c-8.29,.83-15.12-.5-20.5-3.99-6.1-4.08-9.23-10.3-9.4-18.66l-.9-69.5c-.05-3.85-1.22-7.16-3.5-9.95-2.83-3.23-6.24-4.65-10.22-4.26l-13.43,1.34,1.23,110.67-33.33,3.32-1.23-110.67-9.45,.94-.17-16.82,56.22-5.6c13.76-1.37,24.73,.3,32.91,5.01,9.25,5.45,13.99,14.35,14.22,26.72l1.05,63.46c.15,4.85,1.03,7.85,2.66,9.03,1.09,.9,3.71,1.14,7.86,.72Z"/>
    </g>
    <rect class="cls-1" x="-3.9" y="94.31" width="1899.53" height="16.07" transform="translate(-5.49 94.47) rotate(-5.7)"/>
    <rect class="cls-1" x="-3.77" y="434.3" width="1899.63" height="16.72" transform="translate(-39.3 96.18) rotate(-5.7)"/>
  </g>
</svg>